<svg xmlns="http://www.w3.org/2000/svg" viewBox="0 0 570 190" width="570" height="190" font-family="Poppins" role="img" aria-label="Pamoja">
<!-- Emoji artwork: Twemoji by X/Twitter, licensed CC-BY 4.0 (https://github.com/jdecked/twemoji). Wordmark: Poppins (OFL). -->
  <style>
    .o-grp { transform-box: fill-box; transform-origin: center; }
    .o-hug   { animation: pjHug   5.6s ease-in-out infinite; }
    .o-heart { animation: pjHeart 5.6s ease-in-out infinite; }
    @keyframes pjHug {
      0%,56%{opacity:1;transform:scale(1)} 64%{opacity:0;transform:scale(.72)}
      90%{opacity:0;transform:scale(.72)} 98%,100%{opacity:1;transform:scale(1)}
    }
    @keyframes pjHeart {
      0%,56%{opacity:0;transform:scale(.72)} 64%{opacity:1;transform:scale(1.16)}
      72%,90%{opacity:1;transform:scale(1)} 97%,100%{opacity:0;transform:scale(.72)}
    }
    @media (prefers-reduced-motion: reduce){
      .o-hug{opacity:1;animation:none;transform:none}
      .o-heart{opacity:0;animation:none}
    }
  </style>

<g transform="translate(24.00 128) scale(0.12000 -0.12000)" fill="#23252B"><path transform="translate(0 0)" d="M326 268H209V0H69V698H326Q407 698 464.0 670.0Q521 642 549.5 593.0Q578 544 578 482Q578 426 551.5 377.0Q525 328 468.5 298.0Q412 268 326 268ZM434 482Q434 584 320 584H209V381H320Q378 381 406.0 407.5Q434 434 434 482Z"/><path transform="translate(608 0)" d="M286 563Q348 563 394.5 538.0Q441 513 469 475V554H610V0H469V81Q442 42 394.5 16.5Q347 -9 285 -9Q215 -9 157.5 27.0Q100 63 66.5 128.5Q33 194 33 279Q33 363 66.5 428.0Q100 493 157.5 528.0Q215 563 286 563ZM322 440Q283 440 250.0 421.0Q217 402 196.5 365.5Q176 329 176 279Q176 229 196.5 191.5Q217 154 250.5 134.0Q284 114 322 114Q361 114 395.0 133.5Q429 153 449.0 189.5Q469 226 469 277Q469 328 449.0 364.5Q429 401 395.0 420.5Q361 440 322 440Z"/><path transform="translate(1286 0)" d="M984 325V0H844V306Q844 371 811.0 405.5Q778 440 721 440Q664 440 630.5 405.5Q597 371 597 306V0H457V306Q457 371 424.0 405.5Q391 440 334 440Q276 440 242.5 405.5Q209 371 209 306V0H69V554H209V487Q236 522 278.5 542.0Q321 562 372 562Q437 562 488.0 534.5Q539 507 567 456Q594 504 645.5 533.0Q697 562 757 562Q859 562 921.5 499.5Q984 437 984 325Z"/></g>
<g transform="translate(316.08 35.60) scale(2.8667)"><g class="o-grp o-hug"><ellipse transform="rotate(-78 23.001 8)" fill="#55ACEE" cx="23" cy="8" rx="8" ry="6.75"/><path fill="#269" d="M9.724 14.687v1.579c-2.414.525-5.381 1.851-5.829 3.741C2.493 25.919 2.87 35.081 2.87 35.212v.134c0 .654.663.654 1.316.654h16.097c.653 0 1.315 0 1.315-.654V20.007c0-1.719-1.413-3.438-4.632-3.834v-1.486H9.724z"/><path fill="#55ACEE" d="M26.276 13.303v2.963c2.414.525 5.381 1.851 5.829 3.741 1.401 5.913 1.025 15.075 1.025 15.205v.134c0 .654-.663.654-1.316.654H15.717c-.653 0-1.315 0-1.315-.654V20.007c0-1.719 1.413-3.438 4.632-3.834v-1.486l7.242-1.384z"/><ellipse transform="rotate(-12 12.992 8)" fill="#269" cx="12.992" cy="8" rx="6.75" ry="8"/><path fill="#55ACEE" d="M19.092 16.088c-1.31.381-3.441.546-5.898-.382-2.593-.98-4.978-1.944-5.908-2.268-.846-.295-3.005-.033-3.486.848-.481.881-.753 2.485.437 3.659s7.458 3.491 9.23 4.533c.928.546.874 3.823.928 6.499.083 4.043 7.383-13.67 4.697-12.889z"/><path fill="#269" d="M12.233 25.283c1.331.298 3.604.811 5.999-.269 2.527-1.14 4.712-2.732 5.619-3.113.826-.347 2.571-.683 3.532.629.594.81.907 2.434-.207 3.679-1.115 1.246-5.497 3.919-8.739 4.702-2.749.664-6.967.6-8.313-.793-2.101-2.175.281-5.245 2.109-4.835zm12.758-8.048c0-1.952 1.724-3.016 3.739-3.797.835-.324 3.005-.033 3.486.848.481.881.753 2.485-.437 3.659s-6.788 2.294-6.788-.71z"/></g><g class="o-grp o-heart"><path fill="#DD2E44" d="M35.885 11.833c0-5.45-4.418-9.868-9.867-9.868-3.308 0-6.227 1.633-8.018 4.129-1.791-2.496-4.71-4.129-8.017-4.129-5.45 0-9.868 4.417-9.868 9.868 0 .772.098 1.52.266 2.241C1.751 22.587 11.216 31.568 18 34.034c6.783-2.466 16.249-11.447 17.617-19.959.17-.721.268-1.469.268-2.242z"/></g></g>
<g transform="translate(431.28 128) scale(0.12000 -0.12000)" fill="#23252B"><path transform="translate(0 0)" d="M53 702Q53 737 77.5 760.5Q102 784 140 784Q177 784 201.0 760.5Q225 737 225 702Q225 667 201.0 643.5Q177 620 140 620Q102 620 77.5 643.5Q53 667 53 702ZM209 -91Q209 -183 163.5 -223.5Q118 -264 33 -264H-29V-145H11Q43 -145 56.0 -132.5Q69 -120 69 -92V554H209Z"/><path transform="translate(278 0)" d="M286 563Q348 563 394.5 538.0Q441 513 469 475V554H610V0H469V81Q442 42 394.5 16.5Q347 -9 285 -9Q215 -9 157.5 27.0Q100 63 66.5 128.5Q33 194 33 279Q33 363 66.5 428.0Q100 493 157.5 528.0Q215 563 286 563ZM322 440Q283 440 250.0 421.0Q217 402 196.5 365.5Q176 329 176 279Q176 229 196.5 191.5Q217 154 250.5 134.0Q284 114 322 114Q361 114 395.0 133.5Q429 153 449.0 189.5Q469 226 469 277Q469 328 449.0 364.5Q429 401 395.0 420.5Q361 440 322 440Z"/></g>
</svg>